<svg width="112" height="30" viewBox="0 0 112 30" fill="none" xmlns="http://www.w3.org/2000/svg">
<path d="M41.793 21.5752C41.1667 22.4723 40.2907 23.1452 39.165 23.5938C38.0479 24.0339 36.7445 24.2539 35.2549 24.2539C33.7484 24.2539 32.4111 23.9027 31.2432 23.2002C30.0752 22.4893 29.1696 21.4821 28.5264 20.1787C27.8916 18.8753 27.5658 17.3646 27.5488 15.6465V14.0342C27.5488 11.2497 28.1963 9.09147 29.4912 7.55957C30.7946 6.02767 32.6227 5.26172 34.9756 5.26172C36.9053 5.26172 38.4583 5.75684 39.6348 6.74707C40.8112 7.72884 41.5306 9.12533 41.793 10.9365H39.3555C38.8984 8.49056 37.4427 7.26758 34.9883 7.26758C33.3548 7.26758 32.1149 7.8431 31.2686 8.99414C30.4307 10.1367 30.0075 11.7956 29.999 13.9707V15.4814C29.999 17.555 30.473 19.2054 31.4209 20.4326C32.3688 21.6514 33.651 22.2607 35.2676 22.2607C36.1816 22.2607 36.9814 22.1592 37.667 21.9561C38.3525 21.7529 38.9196 21.4102 39.3682 20.9277V16.7764H35.0898V14.7959H41.793V21.5752ZM44.8779 17.0049C44.8779 15.6592 45.1403 14.4489 45.665 13.374C46.1982 12.2992 46.9346 11.4697 47.874 10.8857C48.8219 10.3018 49.901 10.0098 51.1113 10.0098C52.9818 10.0098 54.4925 10.6572 55.6436 11.9521C56.8031 13.2471 57.3828 14.9694 57.3828 17.1191V17.2842C57.3828 18.6214 57.1247 19.8232 56.6084 20.8896C56.1006 21.9476 55.3685 22.7728 54.4121 23.3652C53.4642 23.9577 52.3724 24.2539 51.1367 24.2539C49.2747 24.2539 47.764 23.6064 46.6045 22.3115C45.4535 21.0166 44.8779 19.3027 44.8779 17.1699V17.0049ZM47.2393 17.2842C47.2393 18.8076 47.5905 20.0306 48.293 20.9531C49.0039 21.8757 49.9518 22.3369 51.1367 22.3369C52.3301 22.3369 53.278 21.8714 53.9805 20.9404C54.6829 20.001 55.0342 18.6891 55.0342 17.0049C55.0342 15.4984 54.6745 14.2796 53.9551 13.3486C53.2441 12.4092 52.2962 11.9395 51.1113 11.9395C49.9518 11.9395 49.0166 12.4007 48.3057 13.3232C47.5947 14.2458 47.2393 15.5661 47.2393 17.2842ZM65.2158 17.1064H59.0205V15.1895H65.2158V17.1064ZM67.8818 24V5.51562H73.0996C74.7077 5.51562 76.1296 5.87109 77.3652 6.58203C78.6009 7.29297 79.5531 8.30436 80.2217 9.61621C80.8988 10.9281 81.2415 12.4346 81.25 14.1357V15.3164C81.25 17.0599 80.9115 18.5876 80.2344 19.8994C79.5658 21.2113 78.6051 22.2184 77.3525 22.9209C76.1084 23.6234 74.6569 23.9831 72.998 24H67.8818ZM70.3193 7.52148V22.0068H72.8838C74.7627 22.0068 76.2227 21.4229 77.2637 20.2549C78.3132 19.0869 78.8379 17.4238 78.8379 15.2656V14.1865C78.8379 12.0876 78.3428 10.4583 77.3525 9.29883C76.3708 8.13086 74.9743 7.53841 73.1631 7.52148H70.3193ZM83.9541 17.0049C83.9541 15.6592 84.2165 14.4489 84.7412 13.374C85.2744 12.2992 86.0107 11.4697 86.9502 10.8857C87.8981 10.3018 88.9772 10.0098 90.1875 10.0098C92.0579 10.0098 93.5687 10.6572 94.7197 11.9521C95.8792 13.2471 96.459 14.9694 96.459 17.1191V17.2842C96.459 18.6214 96.2008 19.8232 95.6846 20.8896C95.1768 21.9476 94.4447 22.7728 93.4883 23.3652C92.5404 23.9577 91.4486 24.2539 90.2129 24.2539C88.3509 24.2539 86.8402 23.6064 85.6807 22.3115C84.5296 21.0166 83.9541 19.3027 83.9541 17.1699V17.0049ZM86.3154 17.2842C86.3154 18.8076 86.6667 20.0306 87.3691 20.9531C88.0801 21.8757 89.028 22.3369 90.2129 22.3369C91.4062 22.3369 92.3542 21.8714 93.0566 20.9404C93.7591 20.001 94.1104 18.6891 94.1104 17.0049C94.1104 15.4984 93.7507 14.2796 93.0312 13.3486C92.3203 12.4092 91.3724 11.9395 90.1875 11.9395C89.028 11.9395 88.0928 12.4007 87.3818 13.3232C86.6709 14.2458 86.3154 15.5661 86.3154 17.2842ZM104.914 22.3369C105.752 22.3369 106.484 22.083 107.11 21.5752C107.737 21.0674 108.084 20.4326 108.151 19.6709H110.373C110.331 20.458 110.06 21.207 109.561 21.918C109.061 22.6289 108.393 23.196 107.555 23.6191C106.725 24.0423 105.845 24.2539 104.914 24.2539C103.044 24.2539 101.554 23.6318 100.445 22.3877C99.3451 21.1351 98.7949 19.4255 98.7949 17.2588V16.8652C98.7949 15.528 99.0404 14.3389 99.5312 13.2979C100.022 12.2568 100.725 11.4486 101.639 10.873C102.561 10.2975 103.649 10.0098 104.901 10.0098C106.442 10.0098 107.72 10.471 108.735 11.3936C109.759 12.3161 110.305 13.5137 110.373 14.9863H108.151C108.084 14.0977 107.745 13.3698 107.136 12.8027C106.535 12.2272 105.79 11.9395 104.901 11.9395C103.708 11.9395 102.781 12.3711 102.121 13.2344C101.469 14.0892 101.144 15.3291 101.144 16.9541V17.3984C101.144 18.9811 101.469 20.1999 102.121 21.0547C102.773 21.9095 103.704 22.3369 104.914 22.3369Z" fill="#5697B3"/>
<rect x="8.90479" y="6.3924" width="3.4557" height="15.9494" rx="1.72785" fill="#5697B3"/>
<rect x="2.6582" y="16.0949" width="3.4557" height="15.9494" rx="1.72785" transform="rotate(-90 2.6582 16.0949)" fill="#5697B3"/>
<circle cx="10.5" cy="14.5" r="10" stroke="#5697B3"/>
<rect x="6.79053" y="12.1197" width="2.12658" height="8.77309" transform="rotate(-45 6.79053 12.1197)" fill="white"/>
<rect x="14.6201" y="7.98734" width="1.06329" height="3.72152" fill="#5697B3"/>
<rect x="13.2913" y="10.3797" width="1.06329" height="3.72152" transform="rotate(-90 13.2913 10.3797)" fill="#5697B3"/>
</svg>
